<svg width="220" height="221" viewBox="0 0 220 221" fill="none" xmlns="http://www.w3.org/2000/svg">
<path d="M141.058 93.1339L131.878 108.982V107.975H89.3137V108.329L80.5881 93.1623L60.1856 93.1339L49.9561 110.784L60.1289 128.462L80.5313 128.505L89.3137 113.352V113.65H131.878V112.6L141.001 128.462L161.403 128.505L171.633 110.855L161.46 93.1623L141.058 93.1339Z" fill="#149392"/>
<path d="M211.289 89.4307L131.069 9.21144C125.451 3.59297 117.974 0.5 110 0.5C102.026 0.5 94.5492 3.59297 88.9307 9.21144L8.71144 89.4307C3.09297 95.0492 0 102.526 0 110.5C0 118.474 3.09297 125.951 8.71144 131.569L88.9307 211.789C94.5492 217.407 102.026 220.5 110 220.5C117.974 220.5 125.451 217.407 131.069 211.789L211.289 131.569C216.907 125.951 220 118.474 220 110.5C220 102.526 216.907 95.0492 211.289 89.4307ZM202.265 122.546L122.046 202.765C118.74 206.071 114.37 207.731 110 207.731C105.63 207.731 101.274 206.071 97.9543 202.765L42.7154 149.617H80.6165L95.6275 170.969L125.422 171.296L140.121 145.388L125.096 119.254L95.3011 118.928L81.6522 142.991H38.1801L17.7209 122.531C11.095 115.906 11.095 105.08 17.7209 98.4544L97.9401 18.2351C101.246 14.9293 105.616 13.2693 109.986 13.2693C114.356 13.2693 118.711 14.9293 122.031 18.2351L175.043 70.3083H136.484L125.11 50.6689L95.3154 50.3426L80.6165 76.25L95.6417 102.384L125.437 102.711L138.658 76.8034H181.641L181.087 76.2216L202.265 98.4685C208.891 105.08 208.891 115.92 202.265 122.546ZM88.7888 144.821L99.4299 126.064L120.982 126.306L131.963 145.403L121.322 164.159L99.7704 163.918L88.7888 144.821ZM131.963 76.8034L121.322 95.56L99.7704 95.3188L88.7888 76.2216L99.4299 57.465L120.982 57.7063L131.963 76.8034Z" fill="#149392"/>
</svg>
